<svg fill="none" height="318.995004" viewBox="0 0 173 176" width="313.484534" xmlns="http://www.w3.org/2000/svg"><path d="m18.7282 102.052c2.9715-1.838 6.9687-.94 8.804 2.088l.0461.08 5.3386 8.695c1.8353 3.027.8799 6.988-2.1553 8.809-3.0351 1.82-7.0148.859-8.8501-2.168l-5.3386-8.695c-1.8353-3.027-.8798-6.988 2.1553-8.809z" fill="#f49000"/><path d="m127.591 132.073c1.673 3.119.463 7.01-2.665 8.668l-9.04 4.73c-3.128 1.658-7.038.444-8.711-2.675s-.463-7.009 2.665-8.668l9.04-4.73c3.128-1.658 6.974-.461 8.664 2.594 0 0-.017.063.047.081z" fill="#f49000"/><path d="m20.7515 24.4565 65.5036 36.8017c2.8444 1.6021 3.8514 5.1504 2.3133 7.9968-.3019.5982-.7135 1.0979-1.2524 1.5625-14.2562 12.9667-35.6188 15.4565-52.9226 5.7106-17.1016-9.4857-26.17841-28.9551-22.3457-48.0669.6822-3.2187 3.7698-5.229 7.0209-4.605.5901.0946 1.1452.3158 1.6829.6003z" fill="#58cc02"/><path d="m165.562 64.3907c3.264.0824 5.875 2.7784 5.8 6.0284-.03.605-.141 1.2558-.298 1.8257-6.569 18.3573-24.26 30.3762-43.824 29.8192-19.854-.501-36.9379-13.5249-42.5153-32.0292-1.0019-3.07.722-6.3422 3.8021-7.3325.6138-.2395 1.3199-.3174 1.9911-.2686z" fill="#58cc02"/><path d="m133.439 22.4853c-2.181-.5332-4.467-.6865-6.712-.4881-13.856 1.8343-22.78 2.1671-27.5694.9145-4.7544-1.3793-12.2461-6.2389-23.2036-14.91608-1.8726-1.4022-3.9311-2.37869-6.1405-3.05611-8.9711-2.47396-18.2325 2.80786-20.6947 11.73629l-13.7777 49.9611c-7.2993 26.4687 8.2863 53.8651 34.783 61.3081 26.6302 7.208 53.9919-8.345 61.2909-34.8139l13.778-49.9612c2.462-8.9284-2.783-18.2106-11.754-20.6846z" fill="#58cc02"/><g fill="#89e219"><path d="m96.1712 98.5385-12.0888-3.3337c-.509-.1403-1.0766.1801-1.2163.6867-.0175.0633-.0524.1899-.0062.2708.2958 3.1478 2.5078 5.8017 5.6429 6.5987 3.2449.894 6.6493-.279 8.3546-2.739.2669-.4711.1521-1.0479-.3219-1.3149-.1735-.1159-.2371-.1335-.3643-.1686zm-20.5646-4.3764c.267-.4715.1522-1.0483-.2583-1.2977-.1098-.0984-.1734-.116-.3007-.1511l-12.0887-3.3337c-.4916-.2037-.9606.0077-1.1639.4967-.035.1266-.0874.3166-.0587.4608.2784 3.2111 2.5715 5.8194 5.643 6.5983 3.1176.8598 6.5046-.2503 8.2273-2.7733zm7.1103 11.7049-12.0888-3.334c-.509-.141-1.0591.117-1.1988.623-.0349.127-.0524.19-.0237.334.2784 3.211 2.5715 5.82 5.6429 6.599 3.2449.894 6.6319-.216 8.291-2.756.2669-.472.1521-1.048-.2583-1.298-.1098-.098-.2371-.133-.3643-.168z"/><path d="m77.7783 17.7657 10.1584 19.7676c.4442.872.0663 1.9943-.8544 2.3536-.1622.0916-.3069.1198-.4516.148-7.3217.979-14.1185-4.166-15.1194-11.4602-.5778-4.1113.8292-8.2204 3.762-11.1592.9967-.8834 2.0496-.7293 2.505.3502z"/><path d="m69.5584 19.5189 9.9039 19.6975c.4442.872.0662 1.9942-.8544 2.3536-.1622.0915-.3069.1198-.4516.148-7.3217.9789-14.0549-4.1485-15.0558-11.4427-.5778-4.1113.8292-8.2204 3.6984-11.1767.6549-.6371 1.7602-.6729 2.4015-.0191.1734.1159.2657.2777.358.4394z"/><path d="m73.0056 24.1491 1.3998.386c9.9255 2.7371 15.8056 12.944 13.0815 22.8223l-.0174.0633-3.1956 11.5879c-2.7241 9.8783-12.9586 15.7094-22.8841 12.9723l-.0636-.0176-1.3998-.386c-9.9255-2.7371-15.8056-12.944-13.0815-22.8223l.0174-.0633 3.1956-11.588c2.7241-9.8782 13.0222-15.6918 22.9477-12.9546z"/><path d="m120.025 29.4159c.991-.6127 1.991-.2686 2.348.92 1.788 7.1706-2.604 14.4084-9.8 16.1717-4.04.9979-8.309.0932-11.627-2.5251-.768-.6889-.807-1.7897-.198-2.5077.098-.1091.197-.2181.359-.3097z"/><path d="m126.185 35.1345c.764-.5386 1.864-.3037 2.343.4417.092.1617.184.3234.259.5485 1.788 7.1706-2.604 14.4084-9.8 16.1717-4.04.9979-8.309.0932-11.627-2.5251-.768-.6889-.807-1.7897-.198-2.5077.098-.1091.197-.2182.359-.3097z"/><path d="m120.852 37.3432c9.925 2.7371 15.788 13.0073 13.064 22.8856l-3.196 11.5879c-2.724 9.8783-12.958 15.7094-22.884 12.9723l-.064-.0176-1.399-.386c-9.9258-2.7371-15.8059-12.944-13.0818-22.8223l.0174-.0633 3.1956-11.5879c2.7241-9.8783 12.9588-15.7094 22.8838-12.9723l.064.0176z"/><path d="m104.664 38.9436c-6.2502 3.7956-14.4005 1.8206-18.227-4.4131-.1384-.2426-.2769-.4852-.4154-.7278-3.3054 11.4895-6.1343 21.7477-8.5041 30.8378l9.3067 2.4984 9.2718 2.625c2.688-9.0024 5.534-19.3239 8.568-30.8203z"/></g><path d="m71.3455 30.9137c7.3169 2.0178 11.6101 9.5385 9.6019 16.8205l-2.1828 7.9153c-2.199 7.2294-9.8325 11.3249-17.0333 9.1347-7.0275-2.0742-11.1821-9.3524-9.3711-16.4162l2.1828-7.9153c1.9907-7.2187 9.4682-11.4934 16.7389-9.5565z" fill="#fff"/><path d="m71.1127 38.9577c3.4994.9651 5.5306 4.5232 4.5701 8.006l-1.8859 6.8387c-1.0877 3.4477-4.6842 5.3176-8.1661 4.2893-3.2736-1.039-5.2124-4.4355-4.4316-7.7633l1.8859-6.8388c1.0066-3.4019 4.5744-5.416 8.0276-4.5319z" fill="#122431"/><path d="m66.0002 37.1391c2.2269.6141 3.4558 2.8609 2.8621 5.0138-.5937 2.153-2.8642 3.4347-5.0274 2.8381-2.1633-.5965-3.4559-2.8608-2.8621-5.0138.5937-2.1529 2.8005-3.4522 4.9638-2.8556z" fill="#fff"/><path d="m118.81 44.0031c7.317 2.0177 11.61 9.5385 9.602 16.8205l-2.183 7.9153c-2.199 7.2294-9.833 11.3248-17.033 9.1346-7.028-2.0742-11.1826-9.3523-9.3715-16.4161l2.1825-7.9153c1.991-7.2187 9.468-11.4935 16.739-9.5566 0 0 0 0 .064.0176z" fill="#fff"/><path d="m114.887 51.0295c3.499.965 5.53 4.5232 4.57 8.0059l-1.886 6.8388c-1.088 3.4476-4.684 5.3176-8.166 4.2893-3.274-1.0391-5.213-4.4355-4.432-7.7634l1.886-6.8387c1.007-3.4019 4.574-5.416 8.028-4.5319z" fill="#122431"/><path d="m109.011 49.0004c2.227.6141 3.455 2.8609 2.862 5.0138-.594 2.153-2.864 3.4347-5.028 2.8382-2.163-.5966-3.455-2.8609-2.862-5.0138.513-2.1072 2.72-3.4065 5.028-2.8382-.064-.0175-.064-.0175 0 0z" fill="#fff"/><path d="m98.4076 68.0847c11.0954-1.5054 20.9974-1.9092 29.3694-1.2357 0 0-2.199 14.1796-13.524 14.5315-14.5136.4946-15.8454-13.2958-15.8454-13.2958zm-42.2615-2.6602c-9.6076-6.1245-4.164-19.4092-4.164-19.4092 7.5515 3.6496 15.8928 9.1524 24.5847 16.1145.0174-.0633-8.1945 11.0952-20.4207 3.2947z" fill="#89e219"/><path d="m89.577 57.4047c3.7538 1.0352 5.9696 4.9169 5.003 8.6704 0 0 0 0-.0175.0633l-3.1257 11.3347c-1.0303 3.736-4.9399 5.9966-8.7574 4.9438-3.7539-1.0352-6.0334-4.9344-4.9856-8.7337l3.1257-11.3346c1.0939-3.7185 4.9861-5.9158 8.7575-4.9439z" fill="#f49000"/><path d="m88.8435 60.0642c2.9268.8071 4.6348 3.7992 3.8315 6.712l-2.078 7.5354c-.8033 2.9128-3.8035 4.6065-6.7302 3.7994-2.9268-.8071-4.5712-3.7817-3.8316-6.712l2.0781-7.5354c.7858-2.8494 3.786-4.5432 6.7302-3.7994z" fill="#b66e28"/><path d="m87.3768 65.3833 9.5811 1.0068c.2083-.0107.3705-.1022.3593-.3097.5411-5.4381-3.5248-10.3069-9.004-10.7958-4.1369-.3913-8.1101 1.8517-9.8927 5.5847-.0524.1899.0225.415.1498.4501z" fill="#ffc200"/><path d="m90.9956 60.4533c-.1272-.0351-.2545-.0702-.3643-.1686-1.0579-.6325-2.2032-.9483-3.4357-.9475-.8159-.0206-1.3761-.7202-1.3574-1.5327.0648-.7316.6387-1.3229 1.3273-1.3374 1.7765.013 3.4943.4867 4.9627 1.3686.7111.4005.8659 1.329.4829 1.9729-.348.5172-.9792.8201-1.6155.6447z" fill="#ffde00"/><path d="m33.9201 175.873c-2.1952 0-3.92-1.732-3.92-3.936 0-2.205 1.7248-3.937 3.92-3.937h84.0439c2.195 0 3.92 1.732 3.92 3.937 0 2.204-1.725 3.936-3.92 3.936z" fill="#afafaf" opacity=".3"/></svg>